<mxfile host="65bd71144e">
    <diagram name="miniRT Parsing Flow" id="parsing-flow">
        <mxGraphModel dx="838" dy="1160" grid="0" gridSize="10" guides="1" tooltips="1" connect="1" arrows="1" fold="1" page="0" pageScale="1" pageWidth="1169" pageHeight="827" math="0" shadow="0">
            <root>
                <mxCell id="0"/>
                <mxCell id="1" parent="0"/>
                <mxCell id="edge30" style="fontColor=#18141d;" parent="1" source="parse_plane" target="free_after_parse" edge="1">
                    <mxGeometry relative="1" as="geometry">
                        <Array as="points">
                            <mxPoint x="260" y="1160"/>
                            <mxPoint x="560" y="1160"/>
                        </Array>
                    </mxGeometry>
                </mxCell>
                <mxCell id="edge31" style="fontColor=#18141d;" parent="1" source="parse_cylinder" target="free_after_parse" edge="1">
                    <mxGeometry relative="1" as="geometry">
                        <Array as="points">
                            <mxPoint x="260" y="1160"/>
                            <mxPoint x="560" y="1160"/>
                        </Array>
                    </mxGeometry>
                </mxCell>
                <mxCell id="title" value="miniRT Parsing Flow" style="text;html=1;strokeColor=none;fillColor=none;align=center;verticalAlign=middle;whiteSpace=wrap;rounded=0;fontSize=24;fontStyle=1;" parent="1" vertex="1">
                    <mxGeometry x="400" y="20" width="300" height="40" as="geometry"/>
                </mxCell>
                <mxCell id="start" value="Start: parse_scene()" style="ellipse;whiteSpace=wrap;html=1;fillColor=#d5e8d4;strokeColor=#82b366;fontSize=12;fontStyle=1;fontColor=#18141d;" vertex="1" parent="1">
                    <mxGeometry x="500" y="80" width="120" height="60" as="geometry"/>
                    <mxCell id="start_href" value="file:///Users/flo/Desktop/miniRT/srcs/parsing/parser.c" style="text;html=1;strokeColor=none;fillColor=none;align=center;verticalAlign=middle;whiteSpace=wrap;rounded=0;fontSize=8;fontColor=#666666;" vertex="1" parent="1">
                        <mxGeometry x="500" y="150" width="120" height="20" as="geometry"/>
                    </mxCell>
                </mxCell>
                <mxCell id="start_link" value="" style="endArrow=none;html=1;rounded=0;exitX=0.5;exitY=1;exitDx=0;exitDy=0;entryX=0.5;entryY=0;entryDx=0;entryDy=0;" edge="1" parent="1" source="start" target="start">
                    <mxGeometry width="50" height="50" relative="1" as="geometry">
                        <mxPoint x="560" y="140" as="sourcePoint"/>
                        <mxPoint x="610" y="90" as="targetPoint"/>
                    </mxGeometry>
                </mxCell>
                <mxCell id="start_url" value="file:///Users/flo/Desktop/miniRT/srcs/parsing/parser.c" style="text;html=1;strokeColor=none;fillColor=none;align=center;verticalAlign=middle;whiteSpace=wrap;rounded=0;fontSize=8;fontColor=#666666;" vertex="1" parent="1">
                    <mxGeometry x="500" y="150" width="120" height="20" as="geometry"/>
                </mxCell>
                <mxCell id="open_file" value="Open File" style="rounded=1;whiteSpace=wrap;html=1;fillColor=#dae8fc;strokeColor=#6c8ebf;fontSize=12;fontColor=#18141d;" parent="1" vertex="1">
                    <mxGeometry x="480" y="160" width="160" height="40" as="geometry"/>
                </mxCell>
                <mxCell id="file_check" value="File Opened?" style="rhombus;whiteSpace=wrap;html=1;fillColor=#fff2cc;strokeColor=#d6b656;fontSize=12;fontColor=#18141d;" parent="1" vertex="1">
                    <mxGeometry x="490" y="220" width="140" height="80" as="geometry"/>
                </mxCell>
                <mxCell id="file_error" value="Error: Could not open file" style="rounded=1;whiteSpace=wrap;html=1;fillColor=#f8cecc;strokeColor=#b85450;fontSize=12;fontColor=#18141d;" parent="1" vertex="1">
                    <mxGeometry x="680" y="240" width="160" height="40" as="geometry"/>
                </mxCell>
                <mxCell id="read_line" value="Read Line with get_next_line()" style="rounded=1;whiteSpace=wrap;html=1;fillColor=#dae8fc;strokeColor=#000000;fontSize=12;fontColor=#18141d;" parent="1" vertex="1">
                    <mxGeometry x="480" y="320" width="160" height="40" as="geometry"/>
                </mxCell>
                <mxCell id="line_check" value="Line Exists?" style="rhombus;whiteSpace=wrap;html=1;fillColor=#fff2cc;strokeColor=#d6b656;fontSize=12;fontColor=#18141d;" parent="1" vertex="1">
                    <mxGeometry x="490" y="380" width="140" height="80" as="geometry"/>
                </mxCell>
                <mxCell id="close_file" value="Close File" style="rounded=1;whiteSpace=wrap;html=1;fillColor=#dae8fc;strokeColor=#6c8ebf;fontSize=12;fontColor=#18141d;" parent="1" vertex="1">
                    <mxGeometry x="791" y="400" width="160" height="40" as="geometry"/>
                </mxCell>
                <mxCell id="process_line" value="process_line()" style="rounded=1;whiteSpace=wrap;html=1;fillColor=#e1d5e7;strokeColor=#9673a6;fontSize=12;fontColor=#18141d;" parent="1" vertex="1">
                    <mxGeometry x="480" y="480" width="160" height="40" as="geometry"/>
                    <mxCell id="process_line_url" value="file:///Users/flo/Desktop/miniRT/srcs/parsing/parser.c" style="text;html=1;strokeColor=none;fillColor=none;align=center;verticalAlign=middle;whiteSpace=wrap;rounded=0;fontSize=8;fontColor=#666666;" vertex="1" parent="1">
                        <mxGeometry x="480" y="530" width="160" height="20" as="geometry"/>
                    </mxCell>
                </mxCell>
                <mxCell id="comment_check" value="Is Comment/Empty?" style="rhombus;whiteSpace=wrap;html=1;fillColor=#fff2cc;strokeColor=#d6b656;fontSize=12;fontColor=#18141d;" parent="1" vertex="1">
                    <mxGeometry x="490" y="540" width="140" height="80" as="geometry"/>
                </mxCell>
                <mxCell id="skip_line" value="Free Line, Continue" style="rounded=1;whiteSpace=wrap;html=1;fillColor=#f8cecc;strokeColor=#b85450;fontSize=12;fontColor=#18141d;" parent="1" vertex="1">
                    <mxGeometry x="820" y="772" width="160" height="40" as="geometry"/>
                </mxCell>
                <mxCell id="parse_line" value="parse_line()" style="rounded=1;whiteSpace=wrap;html=1;fillColor=#e1d5e7;strokeColor=#9673a6;fontSize=12;fontColor=#18141d;" parent="1" vertex="1">
                    <mxGeometry x="480" y="640" width="160" height="40" as="geometry"/>
                    <mxCell id="parse_line_url" value="file:///Users/flo/Desktop/miniRT/srcs/parsing/parser.c" style="text;html=1;strokeColor=none;fillColor=none;align=center;verticalAlign=middle;whiteSpace=wrap;rounded=0;fontSize=8;fontColor=#666666;" vertex="1" parent="1">
                        <mxGeometry x="480" y="690" width="160" height="20" as="geometry"/>
                    </mxCell>
                </mxCell>
                <mxCell id="replace_tabs" value="Replace Tabs with Spaces" style="rounded=1;whiteSpace=wrap;html=1;fillColor=#d5e8d4;strokeColor=#82b366;fontSize=12;fontColor=#18141d;" parent="1" vertex="1">
                    <mxGeometry x="480" y="700" width="160" height="40" as="geometry"/>
                </mxCell>
                <mxCell id="split_tokens" value="Split Line into Tokens" style="rounded=1;whiteSpace=wrap;html=1;fillColor=#d5e8d4;strokeColor=#82b366;fontSize=12;fontColor=#18141d;" parent="1" vertex="1">
                    <mxGeometry x="480" y="760" width="160" height="40" as="geometry"/>
                </mxCell>
                <mxCell id="token_check" value="Tokens Valid?" style="rhombus;whiteSpace=wrap;html=1;fillColor=#fff2cc;strokeColor=#d6b656;fontSize=12;fontColor=#18141d;" parent="1" vertex="1">
                    <mxGeometry x="490" y="820" width="140" height="80" as="geometry"/>
                </mxCell>
                <mxCell id="free_tokens" value="Free Tokens, Continue" style="rounded=1;whiteSpace=wrap;html=1;fillColor=#f8cecc;strokeColor=#b85450;fontSize=12;fontColor=#18141d;" parent="1" vertex="1">
                    <mxGeometry x="820" y="840" width="160" height="40" as="geometry"/>
                </mxCell>
                <mxCell id="count_tokens" value="Count Tokens" style="rounded=1;whiteSpace=wrap;html=1;fillColor=#d5e8d4;strokeColor=#000000;fontSize=12;fontColor=#18141d;" parent="1" vertex="1">
                    <mxGeometry x="480" y="920" width="160" height="40" as="geometry"/>
                </mxCell>
                <mxCell id="dispatch" value="dispatch_parse()" style="rounded=1;whiteSpace=wrap;html=1;fillColor=#e1d5e7;strokeColor=#9673a6;fontSize=12;fontStyle=1;fontColor=#18141d;" parent="1" vertex="1">
                    <mxGeometry x="480" y="980" width="160" height="40" as="geometry"/>
                    <mxCell id="dispatch_url" value="file:///Users/flo/Desktop/miniRT/srcs/parsing/parser.c" style="text;html=1;strokeColor=none;fillColor=none;align=center;verticalAlign=middle;whiteSpace=wrap;rounded=0;fontSize=8;fontColor=#666666;" vertex="1" parent="1">
                        <mxGeometry x="480" y="1030" width="160" height="20" as="geometry"/>
                    </mxCell>
                </mxCell>
                <mxCell id="2" style="edgeStyle=none;html=1;entryX=0;entryY=0.5;entryDx=0;entryDy=0;fontColor=#FFFFFF;" edge="1" parent="1" source="token_type" target="label2">
                    <mxGeometry relative="1" as="geometry"/>
                </mxCell>
                <mxCell id="token_type" value="Token Type?" style="rhombus;whiteSpace=wrap;html=1;fillColor=#fff2cc;strokeColor=#d6b656;fontSize=12;fontColor=#18141d;" parent="1" vertex="1">
                    <mxGeometry x="490" y="1040" width="140" height="80" as="geometry"/>
                </mxCell>
                <mxCell id="parse_ambient" value="parse_ambient()" style="rounded=1;whiteSpace=wrap;html=1;fillColor=#ffe6cc;strokeColor=#d79b00;fontSize=12;fontColor=#18141d;" parent="1" vertex="1">
                    <mxGeometry x="200" y="1060" width="120" height="40" as="geometry"/>
                    <mxCell id="parse_ambient_url" value="file:///Users/flo/Desktop/miniRT/srcs/parsing/scene/parse_scene_elements.c" style="text;html=1;strokeColor=none;fillColor=none;align=center;verticalAlign=middle;whiteSpace=wrap;rounded=0;fontSize=8;fontColor=#666666;" vertex="1" parent="1">
                        <mxGeometry x="200" y="1110" width="120" height="20" as="geometry"/>
                    </mxCell>
                </mxCell>
                <mxCell id="parse_camera" value="parse_camera()" style="rounded=1;whiteSpace=wrap;html=1;fillColor=#ffe6cc;strokeColor=#d79b00;fontSize=12;fontColor=#18141d;" parent="1" vertex="1">
                    <mxGeometry x="200" y="1120" width="120" height="40" as="geometry"/>
                    <mxCell id="parse_camera_url" value="file:///Users/flo/Desktop/miniRT/srcs/parsing/scene/parse_scene_elements.c" style="text;html=1;strokeColor=none;fillColor=none;align=center;verticalAlign=middle;whiteSpace=wrap;rounded=0;fontSize=8;fontColor=#666666;" vertex="1" parent="1">
                        <mxGeometry x="200" y="1170" width="120" height="20" as="geometry"/>
                    </mxCell>
                </mxCell>
                <mxCell id="parse_light" value="parse_light()" style="rounded=1;whiteSpace=wrap;html=1;fillColor=#ffe6cc;strokeColor=#d79b00;fontSize=12;fontColor=#18141d;" parent="1" vertex="1">
                    <mxGeometry x="200" y="1180" width="120" height="40" as="geometry"/>
                    <mxCell id="parse_light_url" value="file:///Users/flo/Desktop/miniRT/srcs/parsing/scene/parse_scene_elements.c" style="text;html=1;strokeColor=none;fillColor=none;align=center;verticalAlign=middle;whiteSpace=wrap;rounded=0;fontSize=8;fontColor=#666666;" vertex="1" parent="1">
                        <mxGeometry x="200" y="1230" width="120" height="20" as="geometry"/>
                    </mxCell>
                </mxCell>
                <mxCell id="parse_sphere" value="parse_sphere()" style="rounded=1;whiteSpace=wrap;html=1;fillColor=#ffe6cc;strokeColor=#d79b00;fontSize=12;fontColor=#18141d;" parent="1" vertex="1">
                    <mxGeometry x="200" y="1240" width="120" height="40" as="geometry"/>
                    <mxCell id="parse_sphere_url" value="file:///Users/flo/Desktop/miniRT/srcs/parsing/primitives/parse_sphere.c" style="text;html=1;strokeColor=none;fillColor=none;align=center;verticalAlign=middle;whiteSpace=wrap;rounded=0;fontSize=8;fontColor=#666666;" vertex="1" parent="1">
                        <mxGeometry x="200" y="1290" width="120" height="20" as="geometry"/>
                    </mxCell>
                </mxCell>
                <mxCell id="parse_plane" value="parse_plane()" style="rounded=1;whiteSpace=wrap;html=1;fillColor=#ffe6cc;strokeColor=#d79b00;fontSize=12;fontColor=#18141d;" parent="1" vertex="1">
                    <mxGeometry x="200" y="1300" width="120" height="40" as="geometry"/>
                    <mxCell id="parse_plane_url" value="file:///Users/flo/Desktop/miniRT/srcs/parsing/primitives/parse_plane.c" style="text;html=1;strokeColor=none;fillColor=none;align=center;verticalAlign=middle;whiteSpace=wrap;rounded=0;fontSize=8;fontColor=#666666;" vertex="1" parent="1">
                        <mxGeometry x="200" y="1350" width="120" height="20" as="geometry"/>
                    </mxCell>
                </mxCell>
                <mxCell id="parse_cylinder" value="parse_cylinder()" style="rounded=1;whiteSpace=wrap;html=1;fillColor=#ffe6cc;strokeColor=#d79b00;fontSize=12;fontColor=#18141d;" parent="1" vertex="1">
                    <mxGeometry x="200" y="1360" width="120" height="40" as="geometry"/>
                    <mxCell id="parse_cylinder_url" value="file:///Users/flo/Desktop/miniRT/srcs/parsing/primitives/parse_cylinder.c" style="text;html=1;strokeColor=none;fillColor=none;align=center;verticalAlign=middle;whiteSpace=wrap;rounded=0;fontSize=8;fontColor=#666666;" vertex="1" parent="1">
                        <mxGeometry x="200" y="1410" width="120" height="20" as="geometry"/>
                    </mxCell>
                </mxCell>
                <mxCell id="parse_cone" value="parse_cone()" style="rounded=1;whiteSpace=wrap;html=1;fillColor=#ffe6cc;strokeColor=#d79b00;fontSize=12;fontColor=#18141d;" parent="1" vertex="1">
                    <mxGeometry x="200" y="1420" width="120" height="40" as="geometry"/>
                    <mxCell id="parse_cone_url" value="file:///Users/flo/Desktop/miniRT/srcs/parsing/primitives/parse_cone.c" style="text;html=1;strokeColor=none;fillColor=none;align=center;verticalAlign=middle;whiteSpace=wrap;rounded=0;fontSize=8;fontColor=#666666;" vertex="1" parent="1">
                        <mxGeometry x="200" y="1470" width="120" height="20" as="geometry"/>
                    </mxCell>
                </mxCell>
                <mxCell id="4" style="edgeStyle=none;html=1;exitX=0.5;exitY=1;exitDx=0;exitDy=0;entryX=1;entryY=0.5;entryDx=0;entryDy=0;fontColor=#FFFFFF;" edge="1" parent="1" source="invalid_token" target="free_after_parse">
                    <mxGeometry relative="1" as="geometry">
                        <Array as="points">
                            <mxPoint x="760" y="1235"/>
                        </Array>
                    </mxGeometry>
                </mxCell>
                <mxCell id="invalid_token" value="Error: Invalid Line" style="rounded=1;whiteSpace=wrap;html=1;fillColor=#f8cecc;strokeColor=#b85450;fontSize=12;fontColor=#18141d;" parent="1" vertex="1">
                    <mxGeometry x="680" y="1060" width="160" height="40" as="geometry"/>
                </mxCell>
                <mxCell id="free_after_parse" value="Free Tokens" style="rounded=1;whiteSpace=wrap;html=1;fillColor=#d5e8d4;strokeColor=#82b366;fontSize=12;fontColor=#18141d;" parent="1" vertex="1">
                    <mxGeometry x="480" y="1215" width="160" height="40" as="geometry"/>
                </mxCell>
                <mxCell id="3" style="edgeStyle=none;html=1;exitX=1;exitY=0.5;exitDx=0;exitDy=0;entryX=0;entryY=0.5;entryDx=0;entryDy=0;fontColor=#FFFFFF;" edge="1" parent="1" source="parse_success" target="parse_error">
                    <mxGeometry relative="1" as="geometry"/>
                </mxCell>
                <mxCell id="parse_success" value="Parse Success?" style="rhombus;whiteSpace=wrap;html=1;fillColor=#fff2cc;strokeColor=#d6b656;fontSize=12;fontColor=#18141d;" parent="1" vertex="1">
                    <mxGeometry x="490" y="1270" width="140" height="80" as="geometry"/>
                </mxCell>
                <mxCell id="parse_error" value="Error: Parsing Failed" style="rounded=1;whiteSpace=wrap;html=1;fillColor=#f8cecc;strokeColor=#b85450;fontSize=12;fontColor=#18141d;" parent="1" vertex="1">
                    <mxGeometry x="696" y="1290" width="160" height="40" as="geometry"/>
                </mxCell>
                <mxCell id="continue" value="Continue to Next Line" style="rounded=1;whiteSpace=wrap;html=1;fillColor=#d5e8d4;strokeColor=#82b366;fontSize=12;fontColor=#18141d;" parent="1" vertex="1">
                    <mxGeometry x="480" y="1378" width="160" height="40" as="geometry"/>
                </mxCell>
                <mxCell id="validate_scene" value="validate_scene()" style="rounded=1;whiteSpace=wrap;html=1;fillColor=#e1d5e7;strokeColor=#9673a6;fontSize=12;fontStyle=1;fontColor=#18141d;" parent="1" vertex="1">
                    <mxGeometry x="791" y="400" width="160" height="40" as="geometry"/>
                    <mxCell id="validate_scene_url" value="file:///Users/flo/Desktop/miniRT/srcs/parsing/parser.c" style="text;html=1;strokeColor=none;fillColor=none;align=center;verticalAlign=middle;whiteSpace=wrap;rounded=0;fontSize=8;fontColor=#666666;" vertex="1" parent="1">
                        <mxGeometry x="791" y="450" width="160" height="20" as="geometry"/>
                    </mxCell>
                </mxCell>
                <mxCell id="required_check" value="Required Elements Present?" style="rhombus;whiteSpace=wrap;html=1;fillColor=#fff2cc;strokeColor=#d6b656;fontSize=12;fontColor=#18141d;" parent="1" vertex="1">
                    <mxGeometry x="801" y="460" width="140" height="80" as="geometry"/>
                </mxCell>
                <mxCell id="missing_elements" value="Error: Missing Required Elements" style="rounded=1;whiteSpace=wrap;html=1;fillColor=#f8cecc;strokeColor=#b85450;fontSize=12;fontColor=#18141d;" parent="1" vertex="1">
                    <mxGeometry x="991" y="480" width="160" height="40" as="geometry"/>
                </mxCell>
                <mxCell id="success" value="Success: Scene Parsed" style="ellipse;whiteSpace=wrap;html=1;fillColor=#d5e8d4;strokeColor=#82b366;fontSize=12;fontStyle=1;fontColor=#18141d;" parent="1" vertex="1">
                    <mxGeometry x="941" y="550" width="160" height="60" as="geometry"/>
                </mxCell>
                <mxCell id="edge1" style="fontColor=#18141d;" parent="1" source="start" target="open_file" edge="1">
                    <mxGeometry relative="1" as="geometry"/>
                </mxCell>
                <mxCell id="edge2" style="fontColor=#18141d;" parent="1" source="open_file" target="file_check" edge="1">
                    <mxGeometry relative="1" as="geometry"/>
                </mxCell>
                <mxCell id="edge3" style="fontColor=#18141d;" parent="1" source="file_check" target="file_error" edge="1">
                    <mxGeometry relative="1" as="geometry">
                        <Array as="points">
                            <mxPoint x="660" y="260"/>
                        </Array>
                    </mxGeometry>
                </mxCell>
                <mxCell id="edge4" style="fontColor=#18141d;" parent="1" source="file_check" target="read_line" edge="1">
                    <mxGeometry relative="1" as="geometry">
                        <Array as="points">
                            <mxPoint x="560" y="300"/>
                        </Array>
                    </mxGeometry>
                </mxCell>
                <mxCell id="edge5" style="fontColor=#18141d;" parent="1" source="read_line" target="line_check" edge="1">
                    <mxGeometry relative="1" as="geometry"/>
                </mxCell>
                <mxCell id="edge6" style="fontColor=#18141d;" parent="1" source="line_check" target="close_file" edge="1">
                    <mxGeometry relative="1" as="geometry">
                        <Array as="points">
                            <mxPoint x="660" y="420"/>
                        </Array>
                    </mxGeometry>
                </mxCell>
                <mxCell id="edge7" style="fontColor=#18141d;" parent="1" source="line_check" target="process_line" edge="1">
                    <mxGeometry relative="1" as="geometry">
                        <Array as="points">
                            <mxPoint x="560" y="460"/>
                        </Array>
                    </mxGeometry>
                </mxCell>
                <mxCell id="edge8" style="fontColor=#18141d;" parent="1" source="process_line" target="comment_check" edge="1">
                    <mxGeometry relative="1" as="geometry"/>
                </mxCell>
                <mxCell id="edge9" style="fontColor=#18141d;" parent="1" source="comment_check" target="skip_line" edge="1">
                    <mxGeometry relative="1" as="geometry">
                        <Array as="points">
                            <mxPoint x="660" y="580"/>
                            <mxPoint x="715" y="580"/>
                            <mxPoint x="715" y="792"/>
                        </Array>
                    </mxGeometry>
                </mxCell>
                <mxCell id="edge10" style="fontColor=#18141d;" parent="1" source="comment_check" target="parse_line" edge="1">
                    <mxGeometry relative="1" as="geometry">
                        <Array as="points">
                            <mxPoint x="560" y="620"/>
                        </Array>
                    </mxGeometry>
                </mxCell>
                <mxCell id="edge11" style="fontColor=#18141d;" parent="1" source="parse_line" target="replace_tabs" edge="1">
                    <mxGeometry relative="1" as="geometry"/>
                </mxCell>
                <mxCell id="edge12" style="fontColor=#18141d;" parent="1" source="replace_tabs" target="split_tokens" edge="1">
                    <mxGeometry relative="1" as="geometry"/>
                </mxCell>
                <mxCell id="edge13" style="fontColor=#18141d;" parent="1" source="split_tokens" target="token_check" edge="1">
                    <mxGeometry relative="1" as="geometry"/>
                </mxCell>
                <mxCell id="edge14" style="fontColor=#18141d;" parent="1" source="token_check" target="free_tokens" edge="1">
                    <mxGeometry relative="1" as="geometry">
                        <Array as="points">
                            <mxPoint x="660" y="860"/>
                        </Array>
                    </mxGeometry>
                </mxCell>
                <mxCell id="edge15" style="fontColor=#18141d;" parent="1" source="token_check" target="count_tokens" edge="1">
                    <mxGeometry relative="1" as="geometry">
                        <Array as="points">
                            <mxPoint x="560" y="900"/>
                        </Array>
                    </mxGeometry>
                </mxCell>
                <mxCell id="edge16" style="fontColor=#18141d;" parent="1" source="count_tokens" target="dispatch" edge="1">
                    <mxGeometry relative="1" as="geometry"/>
                </mxCell>
                <mxCell id="edge17" style="fontColor=#18141d;" parent="1" source="dispatch" target="token_type" edge="1">
                    <mxGeometry relative="1" as="geometry"/>
                </mxCell>
                <mxCell id="edge18" style="fontColor=#18141d;" parent="1" source="token_type" target="parse_ambient" edge="1">
                    <mxGeometry relative="1" as="geometry">
                        <Array as="points">
                            <mxPoint x="340" y="1080"/>
                        </Array>
                    </mxGeometry>
                </mxCell>
                <mxCell id="edge20" style="fontColor=#18141d;exitX=0.204;exitY=0.725;exitDx=0;exitDy=0;exitPerimeter=0;" parent="1" source="token_type" target="parse_light" edge="1">
                    <mxGeometry relative="1" as="geometry">
                        <Array as="points">
                            <mxPoint x="340" y="1200"/>
                        </Array>
                    </mxGeometry>
                </mxCell>
                <mxCell id="edge21" style="fontColor=#18141d;" parent="1" source="token_type" target="parse_sphere" edge="1">
                    <mxGeometry relative="1" as="geometry">
                        <Array as="points">
                            <mxPoint x="340" y="1260"/>
                        </Array>
                    </mxGeometry>
                </mxCell>
                <mxCell id="edge22" style="fontColor=#18141d;" parent="1" source="token_type" target="parse_plane" edge="1">
                    <mxGeometry relative="1" as="geometry">
                        <Array as="points">
                            <mxPoint x="340" y="1320"/>
                        </Array>
                    </mxGeometry>
                </mxCell>
                <mxCell id="edge23" style="fontColor=#18141d;" parent="1" source="token_type" target="parse_cylinder" edge="1">
                    <mxGeometry relative="1" as="geometry">
                        <Array as="points">
                            <mxPoint x="340" y="1380"/>
                        </Array>
                    </mxGeometry>
                </mxCell>
                <mxCell id="edge24" style="fontColor=#18141d;" parent="1" source="token_type" target="parse_cone" edge="1">
                    <mxGeometry relative="1" as="geometry">
                        <Array as="points">
                            <mxPoint x="340" y="1440"/>
                        </Array>
                    </mxGeometry>
                </mxCell>
                <mxCell id="edge25" style="fontColor=#18141d;" parent="1" source="token_type" target="invalid_token" edge="1">
                    <mxGeometry relative="1" as="geometry">
                        <Array as="points">
                            <mxPoint x="660" y="1080"/>
                        </Array>
                    </mxGeometry>
                </mxCell>
                <mxCell id="edge26" style="fontColor=#18141d;" parent="1" source="parse_ambient" target="free_after_parse" edge="1">
                    <mxGeometry relative="1" as="geometry">
                        <Array as="points">
                            <mxPoint x="260" y="1160"/>
                            <mxPoint x="560" y="1160"/>
                        </Array>
                    </mxGeometry>
                </mxCell>
                <mxCell id="edge27" style="fontColor=#18141d;" parent="1" source="parse_camera" target="free_after_parse" edge="1">
                    <mxGeometry relative="1" as="geometry">
                        <Array as="points">
                            <mxPoint x="260" y="1160"/>
                            <mxPoint x="560" y="1160"/>
                        </Array>
                    </mxGeometry>
                </mxCell>
                <mxCell id="edge28" style="fontColor=#18141d;" parent="1" source="parse_light" target="free_after_parse" edge="1">
                    <mxGeometry relative="1" as="geometry">
                        <Array as="points">
                            <mxPoint x="260" y="1160"/>
                            <mxPoint x="560" y="1160"/>
                        </Array>
                    </mxGeometry>
                </mxCell>
                <mxCell id="edge29" style="fontColor=#18141d;" parent="1" source="parse_sphere" target="free_after_parse" edge="1">
                    <mxGeometry relative="1" as="geometry">
                        <Array as="points">
                            <mxPoint x="260" y="1160"/>
                            <mxPoint x="560" y="1160"/>
                        </Array>
                    </mxGeometry>
                </mxCell>
                <mxCell id="edge32" style="fontColor=#18141d;" parent="1" source="parse_cone" target="free_after_parse" edge="1">
                    <mxGeometry relative="1" as="geometry">
                        <Array as="points">
                            <mxPoint x="260" y="1490"/>
                            <mxPoint x="920" y="1480"/>
                            <mxPoint x="920" y="1160"/>
                            <mxPoint x="560" y="1160"/>
                        </Array>
                    </mxGeometry>
                </mxCell>
                <mxCell id="edge34" style="fontColor=#18141d;" parent="1" source="free_after_parse" target="parse_success" edge="1">
                    <mxGeometry relative="1" as="geometry"/>
                </mxCell>
                <mxCell id="edge36" style="fontColor=#18141d;" parent="1" source="parse_success" target="continue" edge="1">
                    <mxGeometry relative="1" as="geometry">
                        <Array as="points">
                            <mxPoint x="560" y="1280"/>
                        </Array>
                    </mxGeometry>
                </mxCell>
                <mxCell id="edge37" style="fontColor=#18141d;" parent="1" source="continue" target="read_line" edge="1">
                    <mxGeometry relative="1" as="geometry">
                        <Array as="points">
                            <mxPoint x="400" y="1398"/>
                            <mxPoint x="400" y="1320"/>
                            <mxPoint x="400" y="340"/>
                        </Array>
                    </mxGeometry>
                </mxCell>
                <mxCell id="edge38" style="fontColor=#18141d;" parent="1" source="skip_line" target="read_line" edge="1">
                    <mxGeometry relative="1" as="geometry">
                        <Array as="points">
                            <mxPoint x="900" y="580"/>
                            <mxPoint x="760" y="580"/>
                            <mxPoint x="760" y="340"/>
                        </Array>
                    </mxGeometry>
                </mxCell>
                <mxCell id="edge39" style="fontColor=#18141d;" parent="1" source="free_tokens" target="read_line" edge="1">
                    <mxGeometry relative="1" as="geometry">
                        <Array as="points">
                            <mxPoint x="760" y="860"/>
                            <mxPoint x="760" y="340"/>
                        </Array>
                    </mxGeometry>
                </mxCell>
                <mxCell id="edge40" style="fontColor=#18141d;" parent="1" source="close_file" target="validate_scene" edge="1">
                    <mxGeometry relative="1" as="geometry"/>
                </mxCell>
                <mxCell id="edge41" style="fontColor=#18141d;" parent="1" source="validate_scene" target="required_check" edge="1">
                    <mxGeometry relative="1" as="geometry"/>
                </mxCell>
                <mxCell id="edge42" style="fontColor=#18141d;" parent="1" source="required_check" target="missing_elements" edge="1">
                    <mxGeometry relative="1" as="geometry">
                        <Array as="points">
                            <mxPoint x="971" y="500"/>
                        </Array>
                    </mxGeometry>
                </mxCell>
                <mxCell id="edge43" style="fontColor=#18141d;" parent="1" source="required_check" target="success" edge="1">
                    <mxGeometry relative="1" as="geometry">
                        <Array as="points">
                            <mxPoint x="871" y="540"/>
                        </Array>
                    </mxGeometry>
                </mxCell>
                <mxCell id="label1" value="A" style="text;html=1;strokeColor=none;fillColor=none;align=center;verticalAlign=middle;whiteSpace=wrap;rounded=0;fontSize=10;fontStyle=1;fontColor=#18141d;" parent="1" vertex="1">
                    <mxGeometry x="320" y="1070" width="20" height="20" as="geometry"/>
                </mxCell>
                <mxCell id="label2" value="C" style="text;html=1;strokeColor=none;fillColor=none;align=center;verticalAlign=middle;whiteSpace=wrap;rounded=0;fontSize=10;fontStyle=1;fontColor=#18141d;" parent="1" vertex="1">
                    <mxGeometry x="320" y="1130" width="20" height="20" as="geometry"/>
                </mxCell>
                <mxCell id="label3" value="L" style="text;html=1;strokeColor=none;fillColor=none;align=center;verticalAlign=middle;whiteSpace=wrap;rounded=0;fontSize=10;fontStyle=1;fontColor=#18141d;" parent="1" vertex="1">
                    <mxGeometry x="320" y="1190" width="20" height="20" as="geometry"/>
                </mxCell>
                <mxCell id="label4" value="sp" style="text;html=1;strokeColor=none;fillColor=none;align=center;verticalAlign=middle;whiteSpace=wrap;rounded=0;fontSize=10;fontStyle=1;fontColor=#18141d;" parent="1" vertex="1">
                    <mxGeometry x="320" y="1250" width="20" height="20" as="geometry"/>
                </mxCell>
                <mxCell id="label5" value="pl" style="text;html=1;strokeColor=none;fillColor=none;align=center;verticalAlign=middle;whiteSpace=wrap;rounded=0;fontSize=10;fontStyle=1;fontColor=#18141d;" parent="1" vertex="1">
                    <mxGeometry x="320" y="1310" width="20" height="20" as="geometry"/>
                </mxCell>
                <mxCell id="label6" value="cy" style="text;html=1;strokeColor=none;fillColor=none;align=center;verticalAlign=middle;whiteSpace=wrap;rounded=0;fontSize=10;fontStyle=1;fontColor=#18141d;" parent="1" vertex="1">
                    <mxGeometry x="320" y="1370" width="20" height="20" as="geometry"/>
                </mxCell>
                <mxCell id="label7" value="co" style="text;html=1;strokeColor=none;fillColor=none;align=center;verticalAlign=middle;whiteSpace=wrap;rounded=0;fontSize=10;fontStyle=1;fontColor=#18141d;" parent="1" vertex="1">
                    <mxGeometry x="320" y="1430" width="20" height="20" as="geometry"/>
                </mxCell>
                <mxCell id="legend_title" value="Legend" style="text;html=1;strokeColor=none;fillColor=none;align=center;verticalAlign=middle;whiteSpace=wrap;rounded=0;fontSize=14;fontStyle=1;fontColor=#FFFFFF;" parent="1" vertex="1">
                    <mxGeometry x="1055" y="-98" width="80" height="30" as="geometry"/>
                </mxCell>
                <mxCell id="legend_start" value="Start/End" style="ellipse;whiteSpace=wrap;html=1;fillColor=#d5e8d4;strokeColor=#82b366;fontSize=10;fontColor=#18141d;" parent="1" vertex="1">
                    <mxGeometry x="1055" y="-58" width="80" height="30" as="geometry"/>
                </mxCell>
                <mxCell id="legend_process" value="Process" style="rounded=1;whiteSpace=wrap;html=1;fillColor=#dae8fc;strokeColor=#6c8ebf;fontSize=10;fontColor=#18141d;" parent="1" vertex="1">
                    <mxGeometry x="1055" y="-18" width="80" height="30" as="geometry"/>
                </mxCell>
                <mxCell id="legend_decision" value="Decision" style="rhombus;whiteSpace=wrap;html=1;fillColor=#fff2cc;strokeColor=#d6b656;fontSize=10;fontColor=#18141d;" parent="1" vertex="1">
                    <mxGeometry x="1055" y="22" width="80" height="30" as="geometry"/>
                </mxCell>
                <mxCell id="legend_error" value="Error" style="rounded=1;whiteSpace=wrap;html=1;fillColor=#f8cecc;strokeColor=#b85450;fontSize=10;fontColor=#18141d;" parent="1" vertex="1">
                    <mxGeometry x="1055" y="62" width="80" height="30" as="geometry"/>
                </mxCell>
                <mxCell id="legend_function" value="Function" style="rounded=1;whiteSpace=wrap;html=1;fillColor=#e1d5e7;strokeColor=#9673a6;fontSize=10;fontColor=#18141d;" parent="1" vertex="1">
                    <mxGeometry x="1055" y="102" width="80" height="30" as="geometry"/>
                </mxCell>
                <mxCell id="legend_parser" value="Parser" style="rounded=1;whiteSpace=wrap;html=1;fillColor=#ffe6cc;strokeColor=#d79b00;fontSize=10;fontColor=#18141d;" parent="1" vertex="1">
                    <mxGeometry x="1055" y="142" width="80" height="30" as="geometry"/>
                </mxCell>
            </root>
        </mxGraphModel>
    </diagram>
</mxfile>
